<?xml version="1.0" encoding="UTF-8" standalone="no"?>
<svg width="106px" height="125px" viewBox="0 0 106 125" version="1.1" xmlns="http://www.w3.org/2000/svg" xmlns:xlink="http://www.w3.org/1999/xlink">
    <!-- Generator: Sketch 3.8.3 (29802) - http://www.bohemiancoding.com/sketch -->
    <title>icon-blind</title>
    <desc>Created with Sketch.</desc>
    <defs></defs>
    <g id="Page-1" stroke="none" stroke-width="1" fill="none" fill-rule="evenodd">
        <g id="icon-blind" fill="#FFFFFF">
            <g id="old-man-from-frontal-view-with-a-cane" transform="translate(6.000000, 0.000000)">
                <g id="Capa_1">
                    <g id="Group">
                        <ellipse id="Oval" cx="52.7413333" cy="13.686" rx="16.7273333" ry="13.686"></ellipse>
                        <path d="M87.7054444,61.177 C84.0998889,41.06 78.7673333,31.622 66.473,24.579 C62.9908889,27.517 58.1264444,29.351 52.7425556,29.351 C47.256,29.351 42.3145556,27.442 38.8202222,24.406 C34.2698889,27.529 30.7841111,31.781 27.6588889,35.632 C24.0704444,40.053 20.3597778,44.625 16.9705556,44.86 C16.6112222,44.885 16.2653333,44.939 15.9267778,45.009 C14.9282222,44.785 13.8807778,44.656 12.7966667,44.656 C6.22844444,44.656 0.884888889,49.027 0.884888889,54.402 C0.884888889,55.87 2.33933333,57.059 4.13355556,57.059 C5.92777778,57.059 7.381,55.87 7.381,54.402 C7.381,52.466 8.91488889,50.836 11.0317778,50.233 C11.0342222,50.356 11.0342222,50.478 11.0476667,50.602 C11.3348889,53.374 14.1728889,55.466 17.5107778,55.466 C17.6953333,55.466 17.8798889,55.461 18.0681111,55.447 C18.117,55.444 18.1622222,55.435 18.2098889,55.431 L18.2098889,121.881 C18.2098889,123.35 19.6643333,124.539 21.4585556,124.539 C23.2527778,124.539 24.7072222,123.35 24.7072222,121.881 L24.7072222,54.401 C24.7072222,54.209 24.6852222,54.021 24.6717778,53.833 C28.9422222,51.97 32.2984444,48.767 35.2623333,45.371 L35.2623333,62.555 C35.2623333,63.916 35.563,65.196 36.1044444,66.373 C34.8993333,70.715 30.2084444,87.926 29.9652222,93.732 L29.6315556,101.634 C28.9385556,117.964 28.9385556,118.045 28.9385556,118.259 C28.9385556,121.728 32.3742222,124.538 36.6128889,124.538 C40.8063333,124.538 44.2151111,121.786 44.286,118.368 C44.3092222,117.668 44.6917778,108.661 44.9716667,102.067 L45.3053333,94.164 C45.4275556,91.237 47.6373333,82.06 49.6405556,74.457 C50.5425556,74.561 51.458,74.627 52.382,74.627 C53.5565556,74.627 54.7213333,74.534 55.8616667,74.367 C57.8697778,81.983 60.0966667,91.225 60.2188889,94.164 L60.5513333,102.067 C60.8312222,108.661 61.215,117.668 61.2382222,118.368 C61.3115556,121.786 64.7178889,124.538 68.9113333,124.538 C73.15,124.538 76.5856667,121.726 76.5856667,118.259 C76.5856667,118.045 76.5856667,117.964 75.8926667,101.634 L75.559,93.732 C75.3072222,87.732 70.3107778,69.568 69.3134444,65.986 C69.2462222,65.752 69.1631111,65.523 69.0677778,65.3 C69.3452222,64.429 69.5016667,63.513 69.5016667,62.552 L69.5016667,44.254 C71.5794444,48.497 73.3504444,54.328 74.8537778,62.719 C75.3292222,65.362 78.1012222,67.262 81.2704444,67.262 C81.5857778,67.262 81.9023333,67.242 82.2213333,67.204 C85.7718889,66.779 88.2261111,64.08 87.7054444,61.177 L87.7054444,61.177 Z" id="Shape"></path>
                    </g>
                </g>
            </g>
        </g>
    </g>
</svg>